<mxfile host="Electron" modified="2024-06-06T15:38:01.616Z" agent="Mozilla/5.0 (Windows NT 10.0; Win64; x64) AppleWebKit/537.36 (KHTML, like Gecko) draw.io/24.2.5 Chrome/120.0.6099.109 Electron/28.1.0 Safari/537.36" etag="A5_7JSBAo22LVwEPbTy3" version="24.2.5" type="device">
  <diagram name="第 1 页" id="--AmBlrWVichy5DV8yQl">
    <mxGraphModel dx="2179" dy="2178" grid="1" gridSize="10" guides="1" tooltips="1" connect="1" arrows="1" fold="1" page="1" pageScale="1" pageWidth="827" pageHeight="1169" math="0" shadow="0">
      <root>
        <mxCell id="0" />
        <mxCell id="1" parent="0" />
        <mxCell id="QL8xr1c91qTqVfT0votq-4" value="" style="edgeStyle=orthogonalEdgeStyle;rounded=0;orthogonalLoop=1;jettySize=auto;html=1;" parent="1" source="QL8xr1c91qTqVfT0votq-2" target="QL8xr1c91qTqVfT0votq-3" edge="1">
          <mxGeometry relative="1" as="geometry" />
        </mxCell>
        <mxCell id="QL8xr1c91qTqVfT0votq-6" value="" style="edgeStyle=orthogonalEdgeStyle;rounded=0;orthogonalLoop=1;jettySize=auto;html=1;" parent="1" source="QL8xr1c91qTqVfT0votq-2" target="QL8xr1c91qTqVfT0votq-5" edge="1">
          <mxGeometry relative="1" as="geometry" />
        </mxCell>
        <mxCell id="QL8xr1c91qTqVfT0votq-2" value="Router" style="rounded=1;whiteSpace=wrap;html=1;" parent="1" vertex="1">
          <mxGeometry x="260" y="120" width="120" height="60" as="geometry" />
        </mxCell>
        <mxCell id="QL8xr1c91qTqVfT0votq-3" value="Server" style="whiteSpace=wrap;html=1;rounded=1;" parent="1" vertex="1">
          <mxGeometry x="460" y="120" width="120" height="60" as="geometry" />
        </mxCell>
        <mxCell id="QL8xr1c91qTqVfT0votq-8" value="" style="edgeStyle=orthogonalEdgeStyle;rounded=0;orthogonalLoop=1;jettySize=auto;html=1;" parent="1" source="QL8xr1c91qTqVfT0votq-5" target="QL8xr1c91qTqVfT0votq-7" edge="1">
          <mxGeometry relative="1" as="geometry" />
        </mxCell>
        <mxCell id="QL8xr1c91qTqVfT0votq-5" value="main.rs" style="whiteSpace=wrap;html=1;rounded=1;" parent="1" vertex="1">
          <mxGeometry x="260" y="260" width="120" height="60" as="geometry" />
        </mxCell>
        <mxCell id="QL8xr1c91qTqVfT0votq-7" value="参数校验" style="whiteSpace=wrap;html=1;rounded=1;" parent="1" vertex="1">
          <mxGeometry x="260" y="400" width="120" height="60" as="geometry" />
        </mxCell>
        <mxCell id="QL8xr1c91qTqVfT0votq-9" value="强烈建议看下README" style="text;html=1;align=center;verticalAlign=middle;whiteSpace=wrap;rounded=0;" parent="1" vertex="1">
          <mxGeometry x="90" y="135" width="160" height="30" as="geometry" />
        </mxCell>
        <mxCell id="QL8xr1c91qTqVfT0votq-10" value="&lt;div style=&quot;color: #cccccc;background-color: #1f1f1f;font-family: Consolas, &#39;Courier New&#39;, monospace;font-weight: normal;font-size: 14px;line-height: 19px;white-space: pre;&quot;&gt;&lt;div&gt;&lt;span style=&quot;color: #4ec9b0;&quot;&gt;HeaderValue&lt;/span&gt;&lt;/div&gt;&lt;/div&gt;" style="text;html=1;align=center;verticalAlign=middle;whiteSpace=wrap;rounded=0;" parent="1" vertex="1">
          <mxGeometry x="-70" y="525" width="130" height="30" as="geometry" />
        </mxCell>
        <mxCell id="QL8xr1c91qTqVfT0votq-11" value="&lt;div style=&quot;color: rgb(204, 204, 204); background-color: rgb(31, 31, 31); font-family: Consolas, &amp;quot;Courier New&amp;quot;, monospace; font-size: 14px; line-height: 19px; white-space: pre;&quot;&gt;&lt;span style=&quot;color: #4ec9b0;&quot;&gt;Tokenizer&lt;/span&gt;&lt;span style=&quot;color: #d4d4d4;&quot;&gt;::&lt;/span&gt;&lt;span style=&quot;color: #dcdcaa;&quot;&gt;from_file&lt;/span&gt;(&lt;span style=&quot;color: #9cdcfe;&quot;&gt;local_path&lt;/span&gt;&lt;span style=&quot;color: #d4d4d4;&quot;&gt;.&lt;/span&gt;&lt;span style=&quot;color: #dcdcaa;&quot;&gt;join&lt;/span&gt;(&lt;span style=&quot;color: #ce9178;&quot;&gt;&quot;tokenizer.json&quot;&lt;/span&gt;))&lt;span style=&quot;color: #d4d4d4;&quot;&gt;.&lt;/span&gt;&lt;span style=&quot;color: #dcdcaa;&quot;&gt;ok&lt;/span&gt;()&lt;/div&gt;" style="rounded=1;whiteSpace=wrap;html=1;" parent="1" vertex="1">
          <mxGeometry x="100" y="505" width="510" height="60" as="geometry" />
        </mxCell>
        <mxCell id="QL8xr1c91qTqVfT0votq-14" value="" style="edgeStyle=orthogonalEdgeStyle;rounded=0;orthogonalLoop=1;jettySize=auto;html=1;" parent="1" source="QL8xr1c91qTqVfT0votq-12" target="QL8xr1c91qTqVfT0votq-13" edge="1">
          <mxGeometry relative="1" as="geometry" />
        </mxCell>
        <mxCell id="QL8xr1c91qTqVfT0votq-12" value="&lt;div style=&quot;color: rgb(204, 204, 204); background-color: rgb(31, 31, 31); font-family: Consolas, &amp;quot;Courier New&amp;quot;, monospace; font-size: 14px; line-height: 19px; white-space: pre;&quot;&gt;&lt;span style=&quot;color: #4ec9b0;&quot;&gt;tokio&lt;/span&gt;&lt;span style=&quot;color: #d4d4d4;&quot;&gt;::&lt;/span&gt;&lt;span style=&quot;color: #4ec9b0;&quot;&gt;runtime&lt;/span&gt;&lt;span style=&quot;color: #d4d4d4;&quot;&gt;::&lt;/span&gt;&lt;span style=&quot;color: #4ec9b0;&quot;&gt;Builder&lt;/span&gt;&lt;span style=&quot;color: #d4d4d4;&quot;&gt;::&lt;/span&gt;&lt;span style=&quot;color: #dcdcaa;&quot;&gt;new_multi_thread&lt;/span&gt;()&lt;/div&gt;" style="rounded=1;whiteSpace=wrap;html=1;" parent="1" vertex="1">
          <mxGeometry x="640" y="505" width="350" height="60" as="geometry" />
        </mxCell>
        <mxCell id="QL8xr1c91qTqVfT0votq-16" value="" style="edgeStyle=orthogonalEdgeStyle;rounded=0;orthogonalLoop=1;jettySize=auto;html=1;" parent="1" source="QL8xr1c91qTqVfT0votq-13" target="QL8xr1c91qTqVfT0votq-15" edge="1">
          <mxGeometry relative="1" as="geometry" />
        </mxCell>
        <mxCell id="QL8xr1c91qTqVfT0votq-13" value="&#xa;&lt;div style=&quot;color: #cccccc;background-color: #1f1f1f;font-family: Consolas, &#39;Courier New&#39;, monospace;font-weight: normal;font-size: 14px;line-height: 19px;white-space: pre;&quot;&gt;&lt;div&gt;&lt;span style=&quot;color: #dcdcaa;&quot;&gt;init_logging&lt;/span&gt;&lt;/div&gt;&lt;/div&gt;&#xa;&#xa;" style="whiteSpace=wrap;html=1;rounded=1;" parent="1" vertex="1">
          <mxGeometry x="755" y="645" width="120" height="60" as="geometry" />
        </mxCell>
        <mxCell id="CXCHixJ9ViRCi_uwiEVB-11" style="edgeStyle=orthogonalEdgeStyle;rounded=0;orthogonalLoop=1;jettySize=auto;html=1;exitX=0.5;exitY=1;exitDx=0;exitDy=0;entryX=0.5;entryY=0;entryDx=0;entryDy=0;" parent="1" source="QL8xr1c91qTqVfT0votq-15" target="CXCHixJ9ViRCi_uwiEVB-10" edge="1">
          <mxGeometry relative="1" as="geometry" />
        </mxCell>
        <mxCell id="QL8xr1c91qTqVfT0votq-15" value="&lt;div style=&quot;color: #cccccc;background-color: #1f1f1f;font-family: Consolas, &#39;Courier New&#39;, monospace;font-weight: normal;font-size: 14px;line-height: 19px;white-space: pre;&quot;&gt;&lt;div&gt;&lt;span style=&quot;color: #9cdcfe;&quot;&gt;model_info&lt;/span&gt;&lt;/div&gt;&lt;div&gt;&lt;span style=&quot;color: rgb(78, 201, 176);&quot;&gt;HubModelInfo&lt;/span&gt;&lt;/div&gt;&lt;/div&gt;" style="whiteSpace=wrap;html=1;rounded=1;" parent="1" vertex="1">
          <mxGeometry x="755" y="785" width="120" height="60" as="geometry" />
        </mxCell>
        <mxCell id="QL8xr1c91qTqVfT0votq-17" value="&lt;div style=&quot;color: rgb(204, 204, 204); background-color: rgb(31, 31, 31); font-family: Consolas, &amp;quot;Courier New&amp;quot;, monospace; font-size: 14px; line-height: 19px; white-space: pre;&quot;&gt;&lt;span style=&quot;color: #9cdcfe;&quot;&gt;tokenizer_name&lt;/span&gt;&lt;/div&gt;" style="text;html=1;align=center;verticalAlign=middle;whiteSpace=wrap;rounded=0;" parent="1" vertex="1">
          <mxGeometry x="580" y="660" width="60" height="30" as="geometry" />
        </mxCell>
        <mxCell id="QL8xr1c91qTqVfT0votq-18" value="" style="endArrow=classic;html=1;rounded=0;exitX=0.75;exitY=1;exitDx=0;exitDy=0;" parent="1" source="QL8xr1c91qTqVfT0votq-17" edge="1">
          <mxGeometry width="50" height="50" relative="1" as="geometry">
            <mxPoint x="640" y="740" as="sourcePoint" />
            <mxPoint x="750" y="810" as="targetPoint" />
          </mxGeometry>
        </mxCell>
        <mxCell id="QL8xr1c91qTqVfT0votq-19" value="" style="endArrow=classic;html=1;rounded=0;entryX=0.548;entryY=1.11;entryDx=0;entryDy=0;entryPerimeter=0;" parent="1" target="QL8xr1c91qTqVfT0votq-11" edge="1">
          <mxGeometry width="50" height="50" relative="1" as="geometry">
            <mxPoint x="550" y="670" as="sourcePoint" />
            <mxPoint x="490" y="610" as="targetPoint" />
          </mxGeometry>
        </mxCell>
        <mxCell id="CXCHixJ9ViRCi_uwiEVB-1" value="" style="edgeStyle=orthogonalEdgeStyle;rounded=0;orthogonalLoop=1;jettySize=auto;html=1;" parent="1" source="CXCHixJ9ViRCi_uwiEVB-2" edge="1">
          <mxGeometry relative="1" as="geometry">
            <mxPoint x="260" y="-40" as="targetPoint" />
          </mxGeometry>
        </mxCell>
        <mxCell id="CXCHixJ9ViRCi_uwiEVB-2" value="Request" style="text;html=1;align=center;verticalAlign=middle;whiteSpace=wrap;rounded=0;" parent="1" vertex="1">
          <mxGeometry x="150" y="-55" width="60" height="30" as="geometry" />
        </mxCell>
        <mxCell id="CXCHixJ9ViRCi_uwiEVB-3" value="Client" style="swimlane;fontStyle=0;childLayout=stackLayout;horizontal=1;startSize=30;horizontalStack=0;resizeParent=1;resizeParentMax=0;resizeLast=0;collapsible=1;marginBottom=0;whiteSpace=wrap;html=1;" parent="1" vertex="1">
          <mxGeometry x="260" y="-100" width="140" height="120" as="geometry" />
        </mxCell>
        <mxCell id="CXCHixJ9ViRCi_uwiEVB-4" value="client.py: 客户端类" style="text;strokeColor=none;fillColor=none;align=left;verticalAlign=middle;spacingLeft=4;spacingRight=4;overflow=hidden;points=[[0,0.5],[1,0.5]];portConstraint=eastwest;rotatable=0;whiteSpace=wrap;html=1;" parent="CXCHixJ9ViRCi_uwiEVB-3" vertex="1">
          <mxGeometry y="30" width="140" height="30" as="geometry" />
        </mxCell>
        <mxCell id="CXCHixJ9ViRCi_uwiEVB-5" value="errors.py: error处理" style="text;strokeColor=none;fillColor=none;align=left;verticalAlign=middle;spacingLeft=4;spacingRight=4;overflow=hidden;points=[[0,0.5],[1,0.5]];portConstraint=eastwest;rotatable=0;whiteSpace=wrap;html=1;" parent="CXCHixJ9ViRCi_uwiEVB-3" vertex="1">
          <mxGeometry y="60" width="140" height="30" as="geometry" />
        </mxCell>
        <mxCell id="CXCHixJ9ViRCi_uwiEVB-6" value="types.py: 数据结构" style="text;strokeColor=none;fillColor=none;align=left;verticalAlign=middle;spacingLeft=4;spacingRight=4;overflow=hidden;points=[[0,0.5],[1,0.5]];portConstraint=eastwest;rotatable=0;whiteSpace=wrap;html=1;" parent="CXCHixJ9ViRCi_uwiEVB-3" vertex="1">
          <mxGeometry y="90" width="140" height="30" as="geometry" />
        </mxCell>
        <mxCell id="CXCHixJ9ViRCi_uwiEVB-8" value="&lt;font style=&quot;font-size: 23px;&quot;&gt;lib.rs&lt;/font&gt;" style="ellipse;whiteSpace=wrap;html=1;" parent="1" vertex="1">
          <mxGeometry x="560" y="780" width="120" height="80" as="geometry" />
        </mxCell>
        <mxCell id="CXCHixJ9ViRCi_uwiEVB-9" value="" style="shape=flexArrow;endArrow=classic;html=1;rounded=0;exitX=0;exitY=0.75;exitDx=0;exitDy=0;entryX=1.022;entryY=0.652;entryDx=0;entryDy=0;entryPerimeter=0;" parent="1" source="QL8xr1c91qTqVfT0votq-15" target="CXCHixJ9ViRCi_uwiEVB-8" edge="1">
          <mxGeometry width="50" height="50" relative="1" as="geometry">
            <mxPoint x="510" y="660" as="sourcePoint" />
            <mxPoint x="690" y="820" as="targetPoint" />
          </mxGeometry>
        </mxCell>
        <mxCell id="CXCHixJ9ViRCi_uwiEVB-13" value="" style="edgeStyle=orthogonalEdgeStyle;rounded=0;orthogonalLoop=1;jettySize=auto;html=1;" parent="1" source="CXCHixJ9ViRCi_uwiEVB-10" target="CXCHixJ9ViRCi_uwiEVB-12" edge="1">
          <mxGeometry relative="1" as="geometry" />
        </mxCell>
        <mxCell id="CXCHixJ9ViRCi_uwiEVB-10" value="&lt;div style=&quot;color: rgb(204, 204, 204); background-color: rgb(31, 31, 31); font-family: Consolas, &amp;quot;Courier New&amp;quot;, monospace; font-size: 14px; line-height: 19px; white-space: pre;&quot;&gt;&lt;span style=&quot;color: #9cdcfe;&quot;&gt;sharded_client&lt;/span&gt;&lt;/div&gt;" style="rounded=1;whiteSpace=wrap;html=1;" parent="1" vertex="1">
          <mxGeometry x="755" y="900" width="120" height="60" as="geometry" />
        </mxCell>
        <mxCell id="CXCHixJ9ViRCi_uwiEVB-15" value="" style="edgeStyle=orthogonalEdgeStyle;rounded=0;orthogonalLoop=1;jettySize=auto;html=1;entryX=0.5;entryY=0;entryDx=0;entryDy=0;" parent="1" source="CXCHixJ9ViRCi_uwiEVB-12" target="CXCHixJ9ViRCi_uwiEVB-16" edge="1">
          <mxGeometry relative="1" as="geometry">
            <mxPoint x="815" y="1160" as="targetPoint" />
          </mxGeometry>
        </mxCell>
        <mxCell id="CXCHixJ9ViRCi_uwiEVB-12" value="&lt;div style=&quot;color: rgb(204, 204, 204); background-color: rgb(31, 31, 31); font-family: Consolas, &amp;quot;Courier New&amp;quot;, monospace; font-size: 14px; line-height: 19px; white-space: pre;&quot;&gt;&lt;span style=&quot;color: #dcdcaa;&quot;&gt;warmup&lt;/span&gt;(&lt;span style=&quot;color: #9cdcfe;&quot;&gt;max_input_length&lt;/span&gt; &lt;span style=&quot;color: #569cd6;&quot;&gt;as&lt;/span&gt; &lt;span style=&quot;color: #4ec9b0;&quot;&gt;u32&lt;/span&gt;, &lt;span style=&quot;color: #9cdcfe;&quot;&gt;max_batch_prefill_tokens&lt;/span&gt;)&lt;/div&gt;" style="whiteSpace=wrap;html=1;rounded=1;" parent="1" vertex="1">
          <mxGeometry x="577.5" y="1020" width="475" height="60" as="geometry" />
        </mxCell>
        <mxCell id="CXCHixJ9ViRCi_uwiEVB-16" value="&lt;div style=&quot;color: rgb(204, 204, 204); background-color: rgb(31, 31, 31); font-family: Consolas, &amp;quot;Courier New&amp;quot;, monospace; font-size: 14px; line-height: 19px; white-space: pre;&quot;&gt;&lt;span style=&quot;color: #4ec9b0;&quot;&gt;server&lt;/span&gt;&lt;span style=&quot;color: #d4d4d4;&quot;&gt;::&lt;/span&gt;&lt;span style=&quot;color: #dcdcaa;&quot;&gt;run&lt;/span&gt;()&lt;/div&gt;" style="rounded=1;whiteSpace=wrap;html=1;" parent="1" vertex="1">
          <mxGeometry x="755" y="1160" width="120" height="60" as="geometry" />
        </mxCell>
        <mxCell id="CXCHixJ9ViRCi_uwiEVB-18" value="&lt;div style=&quot;color: rgb(204, 204, 204); background-color: rgb(31, 31, 31); font-family: Consolas, &amp;quot;Courier New&amp;quot;, monospace; font-size: 14px; line-height: 19px; white-space: pre;&quot;&gt;&lt;span style=&quot;color: #4ec9b0;&quot;&gt;Validation&lt;/span&gt;&lt;span style=&quot;color: #d4d4d4;&quot;&gt;::&lt;/span&gt;&lt;span style=&quot;color: #dcdcaa;&quot;&gt;new&lt;/span&gt;()&lt;/div&gt;" style="rounded=1;whiteSpace=wrap;html=1;" parent="1" vertex="1">
          <mxGeometry x="400" y="1290" width="170" height="60" as="geometry" />
        </mxCell>
        <mxCell id="CXCHixJ9ViRCi_uwiEVB-19" value="&lt;div style=&quot;color: rgb(204, 204, 204); background-color: rgb(31, 31, 31); font-family: Consolas, &amp;quot;Courier New&amp;quot;, monospace; font-size: 14px; line-height: 19px; white-space: pre;&quot;&gt;&lt;span style=&quot;color: #4ec9b0;&quot;&gt;Health&lt;/span&gt;&lt;span style=&quot;color: #d4d4d4;&quot;&gt;::&lt;/span&gt;&lt;span style=&quot;color: #dcdcaa;&quot;&gt;new&lt;/span&gt;()&lt;/div&gt;" style="rounded=1;whiteSpace=wrap;html=1;" parent="1" vertex="1">
          <mxGeometry x="640" y="1290" width="120" height="60" as="geometry" />
        </mxCell>
        <mxCell id="CXCHixJ9ViRCi_uwiEVB-20" value="&lt;div style=&quot;color: rgb(204, 204, 204); background-color: rgb(31, 31, 31); font-family: Consolas, &amp;quot;Courier New&amp;quot;, monospace; font-size: 14px; line-height: 19px; white-space: pre;&quot;&gt;&lt;span style=&quot;color: #4ec9b0;&quot;&gt;Infer&lt;/span&gt;&lt;span style=&quot;color: #d4d4d4;&quot;&gt;::&lt;/span&gt;&lt;span style=&quot;color: #dcdcaa;&quot;&gt;new&lt;/span&gt;()&lt;/div&gt;" style="rounded=1;whiteSpace=wrap;html=1;" parent="1" vertex="1">
          <mxGeometry x="850" y="1290" width="120" height="60" as="geometry" />
        </mxCell>
        <mxCell id="CXCHixJ9ViRCi_uwiEVB-21" value="&lt;div style=&quot;color: rgb(204, 204, 204); background-color: rgb(31, 31, 31); font-family: Consolas, &amp;quot;Courier New&amp;quot;, monospace; font-size: 14px; line-height: 19px; white-space: pre;&quot;&gt;&lt;span style=&quot;color: #4ec9b0;&quot;&gt;Router&lt;/span&gt;&lt;span style=&quot;color: #d4d4d4;&quot;&gt;::&lt;/span&gt;&lt;span style=&quot;color: #dcdcaa;&quot;&gt;new&lt;/span&gt;()&lt;/div&gt;&lt;div style=&quot;color: rgb(204, 204, 204); background-color: rgb(31, 31, 31); font-family: Consolas, &amp;quot;Courier New&amp;quot;, monospace; font-size: 14px; line-height: 19px; white-space: pre;&quot;&gt;根据Path路由&lt;/div&gt;" style="rounded=1;whiteSpace=wrap;html=1;" parent="1" vertex="1">
          <mxGeometry x="1040" y="1290" width="120" height="60" as="geometry" />
        </mxCell>
        <mxCell id="CXCHixJ9ViRCi_uwiEVB-22" value="" style="endArrow=classic;html=1;rounded=0;exitX=0;exitY=0.75;exitDx=0;exitDy=0;entryX=0.5;entryY=0;entryDx=0;entryDy=0;" parent="1" source="CXCHixJ9ViRCi_uwiEVB-16" target="CXCHixJ9ViRCi_uwiEVB-18" edge="1">
          <mxGeometry width="50" height="50" relative="1" as="geometry">
            <mxPoint x="730" y="1260" as="sourcePoint" />
            <mxPoint x="780" y="1210" as="targetPoint" />
          </mxGeometry>
        </mxCell>
        <mxCell id="CXCHixJ9ViRCi_uwiEVB-23" value="" style="endArrow=classic;html=1;rounded=0;exitX=0.25;exitY=1;exitDx=0;exitDy=0;entryX=0.5;entryY=0;entryDx=0;entryDy=0;" parent="1" source="CXCHixJ9ViRCi_uwiEVB-16" target="CXCHixJ9ViRCi_uwiEVB-19" edge="1">
          <mxGeometry width="50" height="50" relative="1" as="geometry">
            <mxPoint x="765" y="1215" as="sourcePoint" />
            <mxPoint x="546" y="1300" as="targetPoint" />
          </mxGeometry>
        </mxCell>
        <mxCell id="CXCHixJ9ViRCi_uwiEVB-24" value="" style="endArrow=classic;html=1;rounded=0;exitX=0.75;exitY=1;exitDx=0;exitDy=0;entryX=0.5;entryY=0;entryDx=0;entryDy=0;" parent="1" source="CXCHixJ9ViRCi_uwiEVB-16" target="CXCHixJ9ViRCi_uwiEVB-20" edge="1">
          <mxGeometry width="50" height="50" relative="1" as="geometry">
            <mxPoint x="795" y="1230" as="sourcePoint" />
            <mxPoint x="710" y="1300" as="targetPoint" />
          </mxGeometry>
        </mxCell>
        <mxCell id="CXCHixJ9ViRCi_uwiEVB-25" value="" style="endArrow=classic;html=1;rounded=0;exitX=1;exitY=0.75;exitDx=0;exitDy=0;entryX=0.5;entryY=0;entryDx=0;entryDy=0;" parent="1" source="CXCHixJ9ViRCi_uwiEVB-16" target="CXCHixJ9ViRCi_uwiEVB-21" edge="1">
          <mxGeometry width="50" height="50" relative="1" as="geometry">
            <mxPoint x="765" y="1215" as="sourcePoint" />
            <mxPoint x="495" y="1300" as="targetPoint" />
          </mxGeometry>
        </mxCell>
        <mxCell id="CXCHixJ9ViRCi_uwiEVB-29" value="" style="edgeStyle=orthogonalEdgeStyle;rounded=0;orthogonalLoop=1;jettySize=auto;html=1;" parent="1" source="CXCHixJ9ViRCi_uwiEVB-26" target="CXCHixJ9ViRCi_uwiEVB-28" edge="1">
          <mxGeometry relative="1" as="geometry" />
        </mxCell>
        <mxCell id="CXCHixJ9ViRCi_uwiEVB-26" value="举例：如/generate_stream" style="ellipse;shape=cloud;whiteSpace=wrap;html=1;" parent="1" vertex="1">
          <mxGeometry x="680" y="1410" width="270" height="80" as="geometry" />
        </mxCell>
        <mxCell id="CXCHixJ9ViRCi_uwiEVB-27" value="" style="shape=flexArrow;endArrow=classic;html=1;rounded=0;" parent="1" edge="1">
          <mxGeometry width="50" height="50" relative="1" as="geometry">
            <mxPoint x="820" y="1340" as="sourcePoint" />
            <mxPoint x="820" y="1400" as="targetPoint" />
          </mxGeometry>
        </mxCell>
        <mxCell id="MPHiPJ0cQOCM7aaQKpcx-2" value="" style="edgeStyle=orthogonalEdgeStyle;rounded=0;orthogonalLoop=1;jettySize=auto;html=1;" parent="1" source="CXCHixJ9ViRCi_uwiEVB-28" target="MPHiPJ0cQOCM7aaQKpcx-1" edge="1">
          <mxGeometry relative="1" as="geometry" />
        </mxCell>
        <mxCell id="CXCHixJ9ViRCi_uwiEVB-28" value="&lt;div style=&quot;color: rgb(204, 204, 204); background-color: rgb(31, 31, 31); font-family: Consolas, &amp;quot;Courier New&amp;quot;, monospace; font-size: 14px; line-height: 19px; white-space: pre;&quot;&gt;&lt;span style=&quot;color: #569cd6;&quot;&gt;let&lt;/span&gt; &lt;span style=&quot;color: #9cdcfe;&quot;&gt;stream&lt;/span&gt; &lt;span style=&quot;color: #d4d4d4;&quot;&gt;=&lt;/span&gt; &lt;span style=&quot;color: #4ec9b0;&quot;&gt;async_stream&lt;/span&gt;&lt;span style=&quot;color: #d4d4d4;&quot;&gt;::&lt;/span&gt;&lt;span style=&quot;color: #dcdcaa;&quot;&gt;stream!&lt;/span&gt;&lt;/div&gt;" style="whiteSpace=wrap;html=1;" parent="1" vertex="1">
          <mxGeometry x="642.5" y="1550" width="345" height="60" as="geometry" />
        </mxCell>
        <mxCell id="MPHiPJ0cQOCM7aaQKpcx-5" value="" style="edgeStyle=orthogonalEdgeStyle;rounded=0;orthogonalLoop=1;jettySize=auto;html=1;entryX=0.5;entryY=0;entryDx=0;entryDy=0;" parent="1" source="MPHiPJ0cQOCM7aaQKpcx-1" target="MPHiPJ0cQOCM7aaQKpcx-12" edge="1">
          <mxGeometry relative="1" as="geometry">
            <mxPoint x="815" y="1930" as="targetPoint" />
          </mxGeometry>
        </mxCell>
        <mxCell id="MPHiPJ0cQOCM7aaQKpcx-1" value="&lt;div style=&quot;color: rgb(204, 204, 204); background-color: rgb(31, 31, 31); font-family: Consolas, &amp;quot;Courier New&amp;quot;, monospace; font-size: 14px; line-height: 19px; white-space: pre;&quot;&gt;&lt;span style=&quot;color: #9cdcfe;&quot;&gt;infer&lt;/span&gt;&lt;span style=&quot;color: #d4d4d4;&quot;&gt;.&lt;/span&gt;&lt;span style=&quot;color: #dcdcaa;&quot;&gt;generate_stream&lt;/span&gt;&lt;/div&gt;" style="whiteSpace=wrap;html=1;" parent="1" vertex="1">
          <mxGeometry x="657.5" y="1680" width="315" height="60" as="geometry" />
        </mxCell>
        <mxCell id="MPHiPJ0cQOCM7aaQKpcx-3" value="在infer.rs内" style="text;html=1;align=center;verticalAlign=middle;whiteSpace=wrap;rounded=0;" parent="1" vertex="1">
          <mxGeometry x="540" y="1695" width="110" height="30" as="geometry" />
        </mxCell>
        <mxCell id="MPHiPJ0cQOCM7aaQKpcx-4" value="返回&lt;br&gt;&lt;div style=&quot;color: #cccccc;background-color: #1f1f1f;font-family: Consolas, &#39;Courier New&#39;, monospace;font-weight: normal;font-size: 14px;line-height: 19px;white-space: pre;&quot;&gt;&lt;div&gt;&lt;span style=&quot;color: #4ec9b0;&quot;&gt;InferStreamResponse&lt;/span&gt;&lt;/div&gt;&lt;/div&gt;" style="whiteSpace=wrap;html=1;" parent="1" vertex="1">
          <mxGeometry x="620" y="2260" width="390" height="60" as="geometry" />
        </mxCell>
        <mxCell id="MPHiPJ0cQOCM7aaQKpcx-6" value="&lt;div style=&quot;color: rgb(204, 204, 204); background-color: rgb(31, 31, 31); font-family: Consolas, &amp;quot;Courier New&amp;quot;, monospace; font-size: 14px; line-height: 19px; white-space: pre;&quot;&gt;&lt;span style=&quot;color: #6a9955;&quot;&gt;Limit concurrent requests&lt;/span&gt;&lt;/div&gt;" style="text;html=1;align=center;verticalAlign=middle;whiteSpace=wrap;rounded=0;" parent="1" vertex="1">
          <mxGeometry x="610" y="1754" width="190" height="30" as="geometry" />
        </mxCell>
        <mxCell id="MPHiPJ0cQOCM7aaQKpcx-8" value="&lt;div style=&quot;color: rgb(204, 204, 204); background-color: rgb(31, 31, 31); font-family: Consolas, &amp;quot;Courier New&amp;quot;, monospace; font-size: 14px; line-height: 19px; white-space: pre;&quot;&gt;&lt;span style=&quot;color: #6a9955;&quot;&gt;Validate request&lt;/span&gt;&lt;/div&gt;" style="text;html=1;align=center;verticalAlign=middle;whiteSpace=wrap;rounded=0;" parent="1" vertex="1">
          <mxGeometry x="640" y="1784" width="140" height="30" as="geometry" />
        </mxCell>
        <mxCell id="MPHiPJ0cQOCM7aaQKpcx-9" style="edgeStyle=orthogonalEdgeStyle;rounded=0;orthogonalLoop=1;jettySize=auto;html=1;exitX=0.5;exitY=1;exitDx=0;exitDy=0;" parent="1" source="MPHiPJ0cQOCM7aaQKpcx-6" target="MPHiPJ0cQOCM7aaQKpcx-6" edge="1">
          <mxGeometry relative="1" as="geometry" />
        </mxCell>
        <mxCell id="MPHiPJ0cQOCM7aaQKpcx-10" value="&lt;div style=&quot;color: rgb(204, 204, 204); background-color: rgb(31, 31, 31); font-family: Consolas, &amp;quot;Courier New&amp;quot;, monospace; font-size: 14px; line-height: 19px; white-space: pre;&quot;&gt;&lt;span style=&quot;color: #4ec9b0;&quot;&gt;flume&lt;/span&gt;&lt;span style=&quot;color: #d4d4d4;&quot;&gt;::&lt;/span&gt;&lt;span style=&quot;color: #dcdcaa;&quot;&gt;unbounded&lt;/span&gt;()&lt;/div&gt;" style="text;html=1;align=center;verticalAlign=middle;whiteSpace=wrap;rounded=0;" parent="1" vertex="1">
          <mxGeometry x="670" y="1830" width="60" height="30" as="geometry" />
        </mxCell>
        <mxCell id="MPHiPJ0cQOCM7aaQKpcx-16" style="edgeStyle=orthogonalEdgeStyle;rounded=0;orthogonalLoop=1;jettySize=auto;html=1;exitX=0.5;exitY=1;exitDx=0;exitDy=0;entryX=0.5;entryY=0;entryDx=0;entryDy=0;" parent="1" source="MPHiPJ0cQOCM7aaQKpcx-12" target="MPHiPJ0cQOCM7aaQKpcx-4" edge="1">
          <mxGeometry relative="1" as="geometry" />
        </mxCell>
        <mxCell id="MPHiPJ0cQOCM7aaQKpcx-22" value="" style="edgeStyle=orthogonalEdgeStyle;rounded=0;orthogonalLoop=1;jettySize=auto;html=1;" parent="1" source="MPHiPJ0cQOCM7aaQKpcx-12" target="MPHiPJ0cQOCM7aaQKpcx-21" edge="1">
          <mxGeometry relative="1" as="geometry" />
        </mxCell>
        <mxCell id="MPHiPJ0cQOCM7aaQKpcx-12" value="&lt;div style=&quot;color: #cccccc;background-color: #1f1f1f;font-family: Consolas, &#39;Courier New&#39;, monospace;font-weight: normal;font-size: 14px;line-height: 19px;white-space: pre;&quot;&gt;&lt;span style=&quot;color: rgb(86, 156, 214);&quot;&gt;self&lt;/span&gt;&lt;span style=&quot;color: rgb(212, 212, 212);&quot;&gt;.&lt;/span&gt;shared&lt;span style=&quot;color: rgb(212, 212, 212);&quot;&gt;.&lt;/span&gt;batching_task&lt;span style=&quot;color: rgb(212, 212, 212);&quot;&gt;.&lt;/span&gt;&lt;span style=&quot;color: rgb(220, 220, 170);&quot;&gt;notify_one&lt;/span&gt;()&lt;br&gt;&lt;/div&gt;" style="whiteSpace=wrap;html=1;" parent="1" vertex="1">
          <mxGeometry x="620" y="1900" width="390" height="60" as="geometry" />
        </mxCell>
        <mxCell id="MPHiPJ0cQOCM7aaQKpcx-18" value="" style="edgeStyle=orthogonalEdgeStyle;rounded=0;orthogonalLoop=1;jettySize=auto;html=1;" parent="1" source="MPHiPJ0cQOCM7aaQKpcx-14" target="MPHiPJ0cQOCM7aaQKpcx-17" edge="1">
          <mxGeometry relative="1" as="geometry" />
        </mxCell>
        <mxCell id="MPHiPJ0cQOCM7aaQKpcx-14" value="prefill" style="whiteSpace=wrap;html=1;" parent="1" vertex="1">
          <mxGeometry x="647.5" y="2055" width="95" height="60" as="geometry" />
        </mxCell>
        <mxCell id="MPHiPJ0cQOCM7aaQKpcx-20" value="" style="edgeStyle=orthogonalEdgeStyle;rounded=0;orthogonalLoop=1;jettySize=auto;html=1;" parent="1" source="MPHiPJ0cQOCM7aaQKpcx-15" target="MPHiPJ0cQOCM7aaQKpcx-19" edge="1">
          <mxGeometry relative="1" as="geometry" />
        </mxCell>
        <mxCell id="U4PgPcuaiuDgY4800s01-2" style="edgeStyle=orthogonalEdgeStyle;rounded=0;orthogonalLoop=1;jettySize=auto;html=1;exitX=1;exitY=0.75;exitDx=0;exitDy=0;entryX=0.5;entryY=0;entryDx=0;entryDy=0;" parent="1" source="MPHiPJ0cQOCM7aaQKpcx-15" target="U4PgPcuaiuDgY4800s01-1" edge="1">
          <mxGeometry relative="1" as="geometry" />
        </mxCell>
        <mxCell id="MPHiPJ0cQOCM7aaQKpcx-15" value="decode" style="whiteSpace=wrap;html=1;" parent="1" vertex="1">
          <mxGeometry x="893.75" y="2055" width="95" height="60" as="geometry" />
        </mxCell>
        <mxCell id="MPHiPJ0cQOCM7aaQKpcx-17" value="&lt;div style=&quot;color: rgb(204, 204, 204); background-color: rgb(31, 31, 31); font-family: Consolas, &amp;quot;Courier New&amp;quot;, monospace; font-size: 14px; line-height: 19px; white-space: pre;&quot;&gt;&lt;div style=&quot;line-height: 19px;&quot;&gt;&lt;span style=&quot;color: #4ec9b0;&quot;&gt;ShardedClient&lt;/span&gt;&lt;/div&gt;&lt;/div&gt;&lt;div style=&quot;color: rgb(204, 204, 204); background-color: rgb(31, 31, 31); font-family: Consolas, &amp;quot;Courier New&amp;quot;, monospace; font-size: 14px; line-height: 19px; white-space: pre;&quot;&gt;&lt;span style=&quot;color: #9cdcfe;&quot;&gt;client&lt;/span&gt;&lt;span style=&quot;color: #d4d4d4;&quot;&gt;.&lt;/span&gt;&lt;span style=&quot;color: #dcdcaa;&quot;&gt;prefill&lt;/span&gt;&lt;/div&gt;" style="whiteSpace=wrap;html=1;" parent="1" vertex="1">
          <mxGeometry x="635" y="2165" width="120" height="60" as="geometry" />
        </mxCell>
        <mxCell id="MPHiPJ0cQOCM7aaQKpcx-19" value="&lt;div style=&quot;color: rgb(204, 204, 204); background-color: rgb(31, 31, 31); font-family: Consolas, &amp;quot;Courier New&amp;quot;, monospace; font-size: 14px; line-height: 19px; white-space: pre;&quot;&gt;&lt;span style=&quot;color: rgb(78, 201, 176);&quot;&gt;ShardedClient&lt;/span&gt;&lt;span style=&quot;color: #9cdcfe;&quot;&gt;&lt;br&gt;&lt;/span&gt;&lt;/div&gt;&lt;div style=&quot;color: rgb(204, 204, 204); background-color: rgb(31, 31, 31); font-family: Consolas, &amp;quot;Courier New&amp;quot;, monospace; font-size: 14px; line-height: 19px; white-space: pre;&quot;&gt;&lt;span style=&quot;color: #9cdcfe;&quot;&gt;client&lt;/span&gt;&lt;span style=&quot;color: #d4d4d4;&quot;&gt;.&lt;/span&gt;&lt;span style=&quot;color: #dcdcaa;&quot;&gt;decode&lt;/span&gt;(&lt;span style=&quot;color: #9cdcfe;&quot;&gt;batches&lt;/span&gt;)&lt;/div&gt;" style="whiteSpace=wrap;html=1;" parent="1" vertex="1">
          <mxGeometry x="842.5" y="2165" width="197.5" height="60" as="geometry" />
        </mxCell>
        <mxCell id="MPHiPJ0cQOCM7aaQKpcx-21" value="&lt;div style=&quot;color: rgb(204, 204, 204); background-color: rgb(31, 31, 31); font-family: Consolas, &amp;quot;Courier New&amp;quot;, monospace; font-size: 14px; line-height: 19px; white-space: pre;&quot;&gt;batching_task&lt;/div&gt;" style="whiteSpace=wrap;html=1;" parent="1" vertex="1">
          <mxGeometry x="755" y="1990" width="120" height="60" as="geometry" />
        </mxCell>
        <mxCell id="MPHiPJ0cQOCM7aaQKpcx-29" value="" style="edgeStyle=orthogonalEdgeStyle;rounded=0;orthogonalLoop=1;jettySize=auto;html=1;" parent="1" source="MPHiPJ0cQOCM7aaQKpcx-23" target="MPHiPJ0cQOCM7aaQKpcx-28" edge="1">
          <mxGeometry relative="1" as="geometry" />
        </mxCell>
        <mxCell id="MPHiPJ0cQOCM7aaQKpcx-23" value="client.rs" style="ellipse;whiteSpace=wrap;html=1;rounded=1;" parent="1" vertex="1">
          <mxGeometry x="140" y="890" width="80" height="80" as="geometry" />
        </mxCell>
        <mxCell id="MPHiPJ0cQOCM7aaQKpcx-30" style="edgeStyle=orthogonalEdgeStyle;rounded=0;orthogonalLoop=1;jettySize=auto;html=1;exitX=1;exitY=0.5;exitDx=0;exitDy=0;entryX=0.5;entryY=0;entryDx=0;entryDy=0;" parent="1" source="MPHiPJ0cQOCM7aaQKpcx-25" target="MPHiPJ0cQOCM7aaQKpcx-28" edge="1">
          <mxGeometry relative="1" as="geometry" />
        </mxCell>
        <mxCell id="MPHiPJ0cQOCM7aaQKpcx-25" value="&lt;div style=&quot;color: rgb(204, 204, 204); background-color: rgb(31, 31, 31); font-family: Consolas, &amp;quot;Courier New&amp;quot;, monospace; font-size: 14px; line-height: 19px; white-space: pre;&quot;&gt;&lt;span style=&quot;color: #9cdcfe;&quot;&gt;master_shard_uds_path&lt;/span&gt;&lt;/div&gt;" style="text;html=1;align=center;verticalAlign=middle;whiteSpace=wrap;rounded=0;" parent="1" vertex="1">
          <mxGeometry x="290" y="845" width="194" height="30" as="geometry" />
        </mxCell>
        <mxCell id="MPHiPJ0cQOCM7aaQKpcx-31" style="edgeStyle=orthogonalEdgeStyle;rounded=0;orthogonalLoop=1;jettySize=auto;html=1;exitX=1;exitY=0.5;exitDx=0;exitDy=0;entryX=0;entryY=0.5;entryDx=0;entryDy=0;" parent="1" source="MPHiPJ0cQOCM7aaQKpcx-28" target="CXCHixJ9ViRCi_uwiEVB-10" edge="1">
          <mxGeometry relative="1" as="geometry" />
        </mxCell>
        <mxCell id="MPHiPJ0cQOCM7aaQKpcx-28" value="&lt;div style=&quot;color: #cccccc;background-color: #1f1f1f;font-family: Consolas, &#39;Courier New&#39;, monospace;font-weight: normal;font-size: 14px;line-height: 19px;white-space: pre;&quot;&gt;&lt;div&gt;&lt;span style=&quot;color: #9cdcfe;&quot;&gt;stub&lt;/span&gt;&lt;span style=&quot;color: #d4d4d4;&quot;&gt;:&lt;/span&gt;&lt;span style=&quot;color: #cccccc;&quot;&gt; &lt;/span&gt;&lt;span style=&quot;color: #4ec9b0;&quot;&gt;TextGenerationServiceClient&lt;/span&gt;&lt;span style=&quot;color: #d4d4d4;&quot;&gt;::&lt;/span&gt;&lt;span style=&quot;color: #dcdcaa;&quot;&gt;new&lt;/span&gt;&lt;span style=&quot;color: #cccccc;&quot;&gt;(&lt;/span&gt;&lt;span style=&quot;color: #9cdcfe;&quot;&gt;channel&lt;/span&gt;&lt;span style=&quot;color: #cccccc;&quot;&gt;)&lt;/span&gt;&lt;/div&gt;&lt;/div&gt;" style="whiteSpace=wrap;html=1;rounded=1;" parent="1" vertex="1">
          <mxGeometry x="300" y="900" width="410" height="60" as="geometry" />
        </mxCell>
        <mxCell id="MPHiPJ0cQOCM7aaQKpcx-33" style="edgeStyle=orthogonalEdgeStyle;rounded=0;orthogonalLoop=1;jettySize=auto;html=1;exitX=0.5;exitY=0;exitDx=0;exitDy=0;entryX=0.5;entryY=1;entryDx=0;entryDy=0;" parent="1" source="MPHiPJ0cQOCM7aaQKpcx-32" target="MPHiPJ0cQOCM7aaQKpcx-28" edge="1">
          <mxGeometry relative="1" as="geometry" />
        </mxCell>
        <mxCell id="MPHiPJ0cQOCM7aaQKpcx-32" value="generate.v1.rs" style="ellipse;whiteSpace=wrap;html=1;aspect=fixed;" parent="1" vertex="1">
          <mxGeometry x="285" y="1010" width="95" height="95" as="geometry" />
        </mxCell>
        <mxCell id="MPHiPJ0cQOCM7aaQKpcx-35" style="edgeStyle=orthogonalEdgeStyle;rounded=0;orthogonalLoop=1;jettySize=auto;html=1;exitX=0.5;exitY=1;exitDx=0;exitDy=0;entryX=1;entryY=0.5;entryDx=0;entryDy=0;" parent="1" source="MPHiPJ0cQOCM7aaQKpcx-34" target="MPHiPJ0cQOCM7aaQKpcx-15" edge="1">
          <mxGeometry relative="1" as="geometry" />
        </mxCell>
        <mxCell id="MPHiPJ0cQOCM7aaQKpcx-34" value="&lt;div style=&quot;color: rgb(204, 204, 204); background-color: rgb(31, 31, 31); font-family: Consolas, &amp;quot;Courier New&amp;quot;, monospace; font-size: 14px; line-height: 19px; white-space: pre;&quot;&gt;&lt;span style=&quot;color: #ce9178;&quot;&gt;/generate.v1.TextGenerationService/Decode&lt;/span&gt;&lt;/div&gt;" style="text;html=1;align=center;verticalAlign=middle;whiteSpace=wrap;rounded=0;" parent="1" vertex="1">
          <mxGeometry x="1050" y="2020" width="370" height="30" as="geometry" />
        </mxCell>
        <mxCell id="U4PgPcuaiuDgY4800s01-5" value="" style="edgeStyle=orthogonalEdgeStyle;rounded=0;orthogonalLoop=1;jettySize=auto;html=1;" parent="1" source="U4PgPcuaiuDgY4800s01-1" target="U4PgPcuaiuDgY4800s01-4" edge="1">
          <mxGeometry relative="1" as="geometry" />
        </mxCell>
        <mxCell id="U4PgPcuaiuDgY4800s01-1" value="&lt;div style=&quot;color: rgb(204, 204, 204); background-color: rgb(31, 31, 31); font-family: Consolas, &amp;quot;Courier New&amp;quot;, monospace; font-size: 14px; line-height: 19px; white-space: pre;&quot;&gt;&lt;span style=&quot;color: #4ec9b0;&quot;&gt;TextGenerationService&lt;/span&gt;(&lt;span style=&quot;color: #4ec9b0;&quot;&gt;generate_pb2_grpc&lt;/span&gt;.&lt;span style=&quot;color: #4ec9b0;&quot;&gt;TextGenerationServiceServicer&lt;/span&gt;)&lt;/div&gt;" style="rounded=1;whiteSpace=wrap;html=1;" parent="1" vertex="1">
          <mxGeometry x="1150" y="2165" width="560" height="60" as="geometry" />
        </mxCell>
        <mxCell id="U4PgPcuaiuDgY4800s01-3" value="实现" style="text;html=1;align=center;verticalAlign=middle;whiteSpace=wrap;rounded=0;" parent="1" vertex="1">
          <mxGeometry x="1220" y="2100" width="60" height="30" as="geometry" />
        </mxCell>
        <mxCell id="U4PgPcuaiuDgY4800s01-4" value="&lt;div style=&quot;color: #cccccc;background-color: #1f1f1f;font-family: Consolas, &#39;Courier New&#39;, monospace;font-weight: normal;font-size: 14px;line-height: 19px;white-space: pre;&quot;&gt;&lt;div&gt;&lt;span style=&quot;color: #9cdcfe;&quot;&gt;generations&lt;/span&gt;&lt;span style=&quot;color: #cccccc;&quot;&gt;, &lt;/span&gt;&lt;span style=&quot;color: #9cdcfe;&quot;&gt;next_batch&lt;/span&gt;&lt;span style=&quot;color: #cccccc;&quot;&gt; &lt;/span&gt;&lt;span style=&quot;color: #d4d4d4;&quot;&gt;=&lt;/span&gt;&lt;span style=&quot;color: #cccccc;&quot;&gt; &lt;/span&gt;&lt;span style=&quot;color: #9cdcfe;&quot;&gt;self&lt;/span&gt;&lt;span style=&quot;color: #cccccc;&quot;&gt;.&lt;/span&gt;&lt;span style=&quot;color: #9cdcfe;&quot;&gt;model&lt;/span&gt;&lt;span style=&quot;color: #cccccc;&quot;&gt;.&lt;/span&gt;&lt;span style=&quot;color: #dcdcaa;&quot;&gt;generate_token&lt;/span&gt;&lt;span style=&quot;color: #cccccc;&quot;&gt;(&lt;/span&gt;&lt;span style=&quot;color: #9cdcfe;&quot;&gt;batch&lt;/span&gt;&lt;span style=&quot;color: #cccccc;&quot;&gt;)&lt;/span&gt;&lt;/div&gt;&lt;/div&gt;" style="whiteSpace=wrap;html=1;rounded=1;" parent="1" vertex="1">
          <mxGeometry x="1185" y="2290" width="490" height="60" as="geometry" />
        </mxCell>
      </root>
    </mxGraphModel>
  </diagram>
</mxfile>
